# xmcd
#
# Track frame offsets: 
#        150
#        26942
#        50550
#        77310
#
# Disc length: 1309 seconds
#
# Revision: 1
# Processed by: cddbd v1.5.2PL0 Copyright (c) Steve Scherf et al.
# Submitted via: ExactAudioCopy v0.95b4
#
DISCID=28051b04
DTITLE=TWO-MIX - LIVING DAYLIGHTS
DYEAR=1997
DGENRE=JPop
TTITLE0=LIVING DAYLIGHTS
TTITLE1=BREAK
TTITLE2=LIVING DAYLIGHTS (Instrumental)
TTITLE3=BREAK (Original Instrumental)
EXTD=YEAR: 1997
EXTT0=
EXTT1=
EXTT2=
EXTT3=
PLAYORDER=
